<svg xmlns="http://www.w3.org/2000/svg" width="24" height="24" viewBox="0 0 16 16">
<defs>
 <linearGradient id="Gradient1">
      <stop class="stop1" offset="0%" />
      <stop class="stop2" offset="100%" />
</linearGradient>
    <style>
      <![CDATA[
              #rect1 { fill: url(#Gradient1); }
              .stop1 { stop-color:  rgb(255, 204, 0); }
              .stop2 { stop-color:  rgb(255, 98, 0); }
            ]]>
    </style>
</defs>        
<path id='rect1' d="M8 0a8 8 0 1 1 0 16A8 8 0 0 1 8 0ZM1.5 8a6.5 6.5 0 1 0 13 0 6.5 6.5 0 0 0-13 0Zm4.879-2.773 4.264 2.559a.25.25 0 0 1 0 .428l-4.264 2.559A.25.25 0 0 1 6 10.559V5.442a.25.25 0 0 1 .379-.215Z"/>
</svg>